<?xml version="1.0" encoding="utf-8"?>
<!-- Generator: Adobe Illustrator 19.0.0, SVG Export Plug-In . SVG Version: 6.00 Build 0)  -->
<svg version="1.1" id="Layer_1" xmlns="http://www.w3.org/2000/svg" xmlns:xlink="http://www.w3.org/1999/xlink" x="0px" y="0px"
	 viewBox="0 0 172.9 156.5" style="enable-background:new 0 0 172.9 156.5;" xml:space="preserve">
<style type="text/css">
	.st0{fill:#5BB7B5;}
	.st1{fill:#FFFFFF;}
</style>
<g id="XMLID_53_">
	<g id="XMLID_75_">
		<path id="XMLID_77_" class="st0" d="M44.6,41l0.4-0.1l0.1-3.7l-0.1,3.7l3.1-1.1c-0.1,0-0.2-0.1-0.2-0.1c4.9-5.9,14-8.7,29.5-5.2
			l22.6,5.2c0,0-9.1-26.2-62.6-15.7c0,0,21.6-19.2,39.9-19.2c0,0-57.9-22.4-59.5,29.7c0,0-40.4,45.4,0,62.8c0,0-8.7-37.3,11.5-47.1
			c0,0-1.1,47.1,23,47.1c0.2,0.5-14.3-32-8.1-51c0.2,0.2,0.4,0.4,0.6,0.6l0.1-5.9L44.6,41z"/>
	</g>
	<g id="XMLID_71_">
		<path id="XMLID_73_" class="st0" d="M137.2,61l-4.3-1.5c0.1,0.1,0.2,0.2,0.3,0.3c-11.2,5.5-26.4,18.4-37.1,48.2
			c0-0.2-0.1-0.3-0.1-0.5C83.2,64.8,62.9,47.1,48.2,39.8l-3.1,1.1l-0.1,5.9c47,45.8,30.7,109,30.7,109s4.5,0.7,10.1,0.7
			c6.1,0,10.3-0.4,10.3-0.4s5.7-1.1,7.6-1.5c4.1-0.9,6.7-1.8,6.7-1.8s-13.5-49.6,25.9-87.5L137.2,61z"/>
	</g>
	<g id="XMLID_67_">
		<path id="XMLID_69_" class="st0" d="M158,55.5c-1.3-43-49.2-24.5-49.2-24.5c15.1,0,33,15.9,33,15.9c-44.2-8.7-51.7,13-51.7,13
			l18.7-4.3c12.5-2.8,19.9-0.7,24.1,4l4.3,1.5l0.9-3.8l-0.9,3.8l2.8,1l-2.8-1l-1,4.3l0,0c5.1,15.7-6.9,42.7-6.7,42.2
			c19.9,0,19-39,19-39c16.7,8.1,9.5,39,9.5,39C191.5,93,158,55.5,158,55.5z"/>
	</g>
	<g id="XMLID_63_">
		<path id="XMLID_64_" class="st1" d="M54.4,48.7c0,5.9-4.8,10.7-10.7,10.7c-5.9,0-10.7-4.8-10.7-10.7C33,42.7,37.8,38,43.7,38
			C49.6,38,54.4,42.7,54.4,48.7z"/>
	</g>
	<g id="XMLID_54_">
		<path id="XMLID_62_" class="st1" d="M145.9,67.9c0,5.9-4.8,10.7-10.7,10.7c-5.9,0-10.7-4.8-10.7-10.7c0-5.9,4.8-10.7,10.7-10.7
			C141.1,57.2,145.9,62,145.9,67.9z"/>
	</g>
</g>
</svg>
